<svg width="36" height="10" viewBox="0 0 36 10" fill="none" xmlns="http://www.w3.org/2000/svg">
<path d="M0 1.53808V9.92148H2.74192V5.49264C2.74192 5.49264 3.09291 3.73498 5.21975 3.7525C7.3466 3.77001 7.59249 5.49264 7.59249 5.49264V9.92148H10.2462V5.33432C10.2462 5.33432 10.936 3.67839 12.7152 3.66492C14.4945 3.65144 15.1931 5.40506 15.1931 5.40506V9.91879H17.869V5.53643C17.869 5.53643 18.1223 3.69119 20.3865 3.74374C22.6508 3.79629 22.8516 5.45693 22.8516 5.45693V9.92081H25.5403V5.47041C25.5403 5.47041 26.0671 3.69119 28.1764 3.70534C30.2858 3.71949 30.5492 5.57685 30.5492 5.57685V9.92216H33.1853V5.25954C33.1853 5.25954 32.8289 1.56031 28.7666 1.53808C28.7666 1.53808 26.2066 1.18708 24.7729 3.29574C24.7729 3.29574 23.916 1.46397 20.8581 1.51652C17.8002 1.56907 17.0754 3.26811 17.0754 3.26811C17.0754 3.26811 16.0473 1.49968 13.2528 1.51652C10.4584 1.53336 9.43167 3.28294 9.43167 3.28294C9.43167 3.28294 8.64075 1.5401 5.80721 1.51517C2.97367 1.49024 2.63211 2.63687 2.63211 2.63687V1.53808H0Z" fill="#DBCCAC"/>
<path d="M34.5435 2.91304C35.3479 2.91304 36 2.26093 36 1.45652C36 0.652106 35.3479 0 34.5435 0C33.7391 0 33.087 0.652106 33.087 1.45652C33.087 2.26093 33.7391 2.91304 34.5435 2.91304Z" fill="#DBCCAC"/>
</svg>
