<svg width="123" height="123" viewBox="0 0 123 123" fill="none" xmlns="http://www.w3.org/2000/svg">
<path d="M15.375 10.25V41H46.125" stroke="#DBCCAC" stroke-width="1.5" stroke-linecap="round" stroke-linejoin="round"/>
<path d="M107.625 61.5C107.617 52.5995 105.034 43.8914 100.187 36.4261C95.3408 28.9608 88.4379 23.0572 80.3113 19.4273C72.1846 15.7974 63.1813 14.5962 54.3872 15.9687C45.5932 17.3413 37.384 21.2288 30.75 27.1625L15.375 41" stroke="#DBCCAC" stroke-width="1.5" stroke-linecap="round" stroke-linejoin="round"/>
<path d="M107.625 112.75V82H76.875" stroke="#DBCCAC" stroke-width="1.5" stroke-linecap="round" stroke-linejoin="round"/>
<path d="M15.375 61.5C15.3831 70.4005 17.9662 79.1086 22.8127 86.5739C27.6592 94.0392 34.5621 99.9428 42.6887 103.573C50.8154 107.203 59.8187 108.404 68.6128 107.031C77.4068 105.659 85.616 101.771 92.25 95.8375L107.625 82" stroke="#DBCCAC" stroke-width="1.5" stroke-linecap="round" stroke-linejoin="round"/>
</svg>
